PathFileType	4	(X/Y/Z)	C:/Users/opensim2020/Desktop/walking_exp_matlab/subject06_walking20_straight_03.trc	
DataRate	CameraRate	NumFrames	NumMarkers	Units	OrigDataRate	OrigDataStartFrame	OrigNumFrames	
100.00	100.00	4	43	mm	100.00	1714	132	
Frame#	Time	LFHD			RFHD			LBHD			RBHD			C7			T10			CLAV			STRN			RBAK			LSHO			LUPA			LELB			LFRM			LWRA			LWRB			LFIN			RSHO			RUPA			RELB			RFRM			RWRA			RWRB			RFIN			LASI			RASI			LPSI			RPSI			LTHI			LKNE			LTIB			LANK			LHEE			LTOE			RTHI			RKNE			RTIB			RANK			RHEE			RTOE			*39			*40			*41			*42			
		X1	Y1	Z1	X2	Y2	Z2	X3	Y3	Z3	X4	Y4	Z4	X5	Y5	Z5	X6	Y6	Z6	X7	Y7	Z7	X8	Y8	Z8	X9	Y9	Z9	X10	Y10	Z10	X11	Y11	Z11	X12	Y12	Z12	X13	Y13	Z13	X14	Y14	Z14	X15	Y15	Z15	X16	Y16	Z16	X17	Y17	Z17	X18	Y18	Z18	X19	Y19	Z19	X20	Y20	Z20	X21	Y21	Z21	X22	Y22	Z22	X23	Y23	Z23	X24	Y24	Z24	X25	Y25	Z25	X26	Y26	Z26	X27	Y27	Z27	X28	Y28	Z28	X29	Y29	Z29	X30	Y30	Z30	X31	Y31	Z31	X32	Y32	Z32	X33	Y33	Z33	X34	Y34	Z34	X35	Y35	Z35	X36	Y36	Z36	X37	Y37	Z37	X38	Y38	Z38	X39	Y39	Z39	X40	Y40	Z40	X41	Y41	Z41	X42	Y42	Z42	X43	Y43	Z43	

34	0.330	-1044.83411	-511.59113	1649.27563	-915.00629	-524.22571	1629.53198	-1061.00037	-645.75378	1601.44177	-932.83698	-656.68726	1586.94824	-1010.77942	-658.47253	1440.69055	-1008.65332	-714.95551	1115.53760	-1005.54242	-553.12878	1356.52100	-1015.94196	-523.29218	1179.14294	-941.80188	-743.37585	1275.45789	-1167.98999	-600.54254	1395.34143	-1240.21948	-584.73914	1196.76758	-1253.60474	-569.31421	1085.58887	-1271.66943	-464.28229	983.23877	-1228.12280	-342.44775	950.65234	-1256.93799	-380.35706	897.89984	-1260.83240	-291.99454	878.55231	-845.78430	-603.86786	1389.56738	-765.91895	-697.55896	1210.26086	-753.08948	-726.79681	1091.46436	-732.76788	-753.81854	974.43842	-753.08118	-741.63580	820.66132	-721.39349	-796.95929	843.28412	-715.56628	-792.43579	758.85834	-1114.66028	-556.63647	937.87653	-896.69647	-539.88312	956.49615	-1077.89233	-709.67450	975.11371	-910.52679	-691.68951	987.33978	-1168.94812	-646.53687	621.42987	-1157.80798	-653.13715	458.09763	-1155.17615	-856.67126	311.93726	-1123.41809	-997.29413	217.48112	-1076.94482	-1026.42920	243.30643	-1120.98511	-965.99347	71.26263	-843.74585	-533.22040	632.65564	-881.52216	-496.50842	516.49719	-887.22412	-521.91040	250.67552	-938.05188	-535.95996	67.63615	-980.93988	-578.52539	44.00331	-945.86005	-385.51364	35.79766	-992.59698	-615.22522	1687.80457									 
35	0.340	-1045.30383	-498.82181	1651.39807	-915.18756	-511.07358	1632.28613	-1061.04724	-632.72760	1603.70581	-932.82379	-643.50989	1589.50806	-1010.14728	-645.07098	1443.14807	-1007.05365	-701.13019	1117.59106	-1005.36212	-539.55957	1358.93164	-1015.39313	-509.61438	1181.57190	-939.90564	-729.49640	1277.57104	-1167.81104	-588.28687	1397.12024	-1239.46790	-574.87268	1197.87976	-1251.49365	-560.06262	1086.36609	-1270.27991	-457.84265	980.85730	-1227.17200	-336.41248	944.80573	-1256.00415	-376.24600	893.52832	-1260.12793	-288.54324	870.93909	-845.28687	-589.47699	1392.09131	-764.57611	-681.96661	1212.36169	-751.68549	-710.49597	1093.33582	-731.71869	-735.26208	975.63647	-753.16656	-720.35394	822.36359	-720.35388	-775.99030	843.83826	-715.27258	-768.81555	759.37140	-1114.43372	-543.41730	940.24817	-896.08405	-525.96527	958.01550	-1077.17957	-696.52673	977.27386	-909.83466	-678.30933	989.56689	-1168.70435	-627.94214	623.37537	-1157.79407	-629.29877	460.14685	-1154.35083	-830.54224	316.12430	-1120.01514	-972.32965	220.67451	-1073.04407	-1002.18958	244.99055	-1120.72827	-936.04260	76.01865	-843.49219	-524.54340	633.94098	-880.62146	-490.35156	516.60150	-886.71436	-519.72498	250.63626	-938.17529	-535.98553	67.56551	-980.80737	-578.72345	44.07134	-945.80743	-385.56039	35.66952	-992.87903	-602.17090	1690.22839									 
36	0.350	-1045.69604	-485.92126	1653.66394	-915.57507	-497.81320	1634.91760	-1061.10815	-619.65546	1605.61560	-932.85919	-630.19989	1591.68933	-1009.51764	-631.40381	1445.26880	-1005.45496	-687.55524	1119.70520	-1005.12976	-526.02972	1361.12378	-1015.08899	-496.36057	1183.55713	-938.03198	-715.75507	1279.74902	-1167.96387	-575.80444	1398.83496	-1238.38855	-565.18738	1198.75122	-1249.55896	-551.05847	1087.19580	-1268.44006	-451.51825	978.58801	-1226.30334	-331.10791	938.47888	-1255.16968	-372.86099	888.68665	-1259.36768	-286.09549	862.84595	-844.82996	-575.10016	1394.49011	-763.40253	-666.26050	1214.28503	-750.21423	-693.79950	1094.98755	-730.29419	-716.11267	976.85968	-752.94952	-698.28790	824.12128	-719.52014	-753.46173	843.88251	-714.74243	-744.35394	759.72797	-1114.04968	-530.17633	942.61475	-895.78131	-512.91907	959.82990	-1076.84509	-683.41510	979.34650	-909.66504	-665.09265	991.70544	-1168.57361	-608.99554	625.66003	-1157.68823	-605.23651	462.59326	-1152.18164	-805.74286	318.66953	-1116.94006	-945.57489	221.23625	-1069.25769	-976.28021	244.41061	-1120.47729	-904.14655	79.41405	-843.32507	-516.03461	634.94257	-879.74017	-484.30429	516.64899	-886.17737	-517.58466	250.54662	-938.00232	-536.00043	67.53309	-980.60431	-578.97858	44.09198	-945.72253	-385.62872	35.58335	-993.20929	-589.27368	1692.44897									 
37	0.360	-1046.12756	-473.01749	1655.89001	-915.92749	-484.67038	1637.48181	-1061.20740	-606.68036	1607.32373	-932.89435	-616.87903	1593.75293	-1008.91559	-617.99512	1447.47290	-1004.00269	-674.22272	1121.91504	-1004.89624	-512.46851	1363.15454	-1014.67303	-482.95230	1185.67712	-936.21442	-702.13428	1282.00879	-1167.63025	-563.32794	1400.57996	-1237.46997	-555.23669	1199.81152	-1247.64136	-542.35431	1087.95374	-1267.12415	-446.00287	976.10437	-1225.49048	-326.59610	931.70667	-1254.41577	-370.24536	883.52460	-1258.89380	-284.55655	854.52094	-844.38074	-560.85516	1396.75818	-762.05731	-650.31934	1216.02478	-748.78815	-676.69330	1096.44812	-729.01672	-696.60699	977.88641	-752.62341	-675.59052	825.85913	-718.28668	-731.38837	844.27545	-714.23224	-719.95502	760.37079	-1113.58801	-516.88031	944.94916	-895.12933	-499.58911	961.73383	-1076.76855	-670.26642	981.39886	-909.44733	-652.29749	993.87549	-1168.49316	-589.79321	628.18939	-1157.45496	-581.21320	465.30093	-1149.92407	-779.64679	320.15796	-1114.11890	-917.98315	220.22183	-1065.68359	-949.14050	241.80757	-1120.77271	-871.72235	80.44910	-843.21149	-507.28122	635.51929	-879.31299	-478.22372	516.36755	-885.50745	-515.14532	250.36502	-937.53986	-535.97791	67.57871	-980.40686	-579.10883	44.03300	-945.92743	-385.62790	35.40468	-993.60864	-576.48193	1694.44299									 
